# File created by Blade
# Date/Time:  Tue Apr 07 21:12:38 2015
# Frame Rate: 120.000 fps
#------------------------------------------------------
:FULLY-SPECIFIED
:DEGREES
1306
root -3.450406 23.745050 9.933380 707.937281 -75.166184 -435.819035
Spine -69.663367 -22.401333 4.890248
Head -86.775334 12.802918 10.743924
LeftShoulder -22.663660 2.323272 39.700502
LeftArm 185.449369 -26.448138 -146.946614
LeftForeArm 43.183718 -0.000000 118.561144
LeftHand -17.024629 -0.000000 -10.501972
LeftHandThumb1 -26.253704 0.000000 33.147579
RightShoulder -28.501874 67.972869 -59.600897
RightArm 110.096833 60.361186 108.578497
RightForeArm -31.864262 -0.000000 127.762650
RightHand -8.577609 -0.000000 9.697398
RightHandThumb1 -24.326973 -0.000000 -32.862282
LeftUpLeg 10.877549 7.671492 20.491555
LeftLeg 83.708454 -0.000000 -0.000000
LeftFoot 15.705715 -0.802070 45.915854
LeftToeBase 115.819019 -0.000000 -0.000000
RightUpLeg 1.502838 -13.456512 -12.566957
RightLeg 91.456862 -0.000000 -0.000000
RightFoot 48.157897 -5.521413 -0.890786
RightToeBase -3.500167 -0.000000 0.000000
1307
root -3.667573 23.645786 9.914761 706.812743 -75.778813 -434.241655
Spine -69.597003 -21.920005 4.977054
Head -86.676260 12.959291 10.761744
LeftShoulder -22.673253 2.425948 39.772635
LeftArm 185.659791 -26.489256 -147.066539
LeftForeArm 43.316361 -0.000000 118.892056
LeftHand -16.974937 -0.000000 -10.547555
LeftHandThumb1 -26.253704 0.000000 33.147579
RightShoulder -27.907454 67.973387 -59.043157
RightArm 110.463825 60.384876 108.932242
RightForeArm -32.288152 -0.000000 128.287803
RightHand -8.641476 -0.000000 9.592421
RightHandThumb1 -24.326973 -0.000000 -32.862282
LeftUpLeg 10.412349 8.228599 20.381528
LeftLeg 84.453622 -0.000000 -0.000000
LeftFoot 15.292888 -1.057380 45.590328
LeftToeBase 116.167257 -0.000000 -0.000000
RightUpLeg 3.022385 -13.164558 -12.649990
RightLeg 91.008999 -0.000000 -0.000000
RightFoot 47.955758 -5.974427 -0.995289
RightToeBase -3.928340 -0.000000 0.000000
1308
root -3.889641 23.545479 9.895650 705.856378 -76.409513 -432.816024
Spine -69.538475 -21.397206 5.135099
Head -86.495039 13.101289 10.881638
LeftShoulder -22.723817 2.605275 39.760117
LeftArm 185.879979 -26.414191 -147.177823
LeftForeArm 43.674286 -0.000000 119.238395
LeftHand -16.649613 -0.000000 -10.635844
LeftHandThumb1 -26.253704 0.000000 33.147579
RightShoulder -27.210624 67.874893 -58.405139
RightArm 110.978800 60.360922 109.388088
RightForeArm -33.109916 -0.000000 128.833194
RightHand -8.668115 -0.000000 9.737010
RightHandThumb1 -24.326973 -0.000000 -32.862282
LeftUpLeg 9.983656 8.722883 20.313977
LeftLeg 85.168547 -0.000000 -0.000000
LeftFoot 14.663300 -1.366920 45.316263
LeftToeBase 116.396621 -0.000000 -0.000000
RightUpLeg 4.528115 -12.935960 -12.705373
RightLeg 90.491721 -0.000000 -0.000000
RightFoot 47.852594 -6.371646 -1.184496
RightToeBase -4.842116 -0.000000 0.000000
1309
root -4.112325 23.438840 9.877721 704.946115 -77.047238 -431.291090
Spine -69.655819 -20.826452 5.326929
Head -86.296292 13.224158 10.857937
LeftShoulder -22.752985 2.789126 39.772004
LeftArm 186.025548 -26.440965 -147.306669
LeftForeArm 43.923026 0.000000 119.592852
LeftHand -16.413665 -0.000000 -10.290366
LeftHandThumb1 -26.253704 0.000000 33.147579
RightShoulder -26.576881 67.810267 -57.909571
RightArm 111.234792 60.446659 109.665844
RightForeArm -33.765532 0.000000 129.364716
RightHand -8.640058 -0.000000 9.786195
RightHandThumb1 -24.326973 -0.000000 -32.862282
LeftUpLeg 9.446798 9.250086 20.190408
LeftLeg 85.957609 -0.000000 -0.000000
LeftFoot 13.930367 -1.547437 45.178948
LeftToeBase 116.476898 -0.000000 -0.000000
RightUpLeg 5.899608 -12.741990 -12.753102
RightLeg 89.928828 -0.000000 -0.000000
RightFoot 47.450671 -6.563718 -1.390774
RightToeBase -4.676900 -0.000000 0.000000
1310
root -4.341912 23.330107 9.854456 704.373347 -77.690681 -430.056310
Spine -69.825832 -20.285605 5.619096
Head -85.988140 13.435869 10.845738
LeftShoulder -22.635539 2.826019 39.807240
LeftArm 186.311773 -26.584468 -147.345921
LeftForeArm 44.247235 -0.000000 119.792014
LeftHand -16.031202 -0.000000 -10.321461
LeftHandThumb1 -26.253704 0.000000 33.147579
RightShoulder -25.961899 67.778287 -57.430538
RightArm 111.452759 60.605358 109.916098
RightForeArm -34.368080 0.000000 129.866533
RightHand -8.718879 -0.000000 9.755242
RightHandThumb1 -24.326973 -0.000000 -32.862282
LeftUpLeg 8.868804 9.768664 20.163271
LeftLeg 86.914763 -0.000000 -0.000000
LeftFoot 12.959529 -1.662090 45.118577
LeftToeBase 116.786725 -0.000000 -0.000000
RightUpLeg 7.210876 -12.685076 -12.771871
RightLeg 89.248302 -0.000000 -0.000000
RightFoot 47.475910 -6.639816 -1.806000
RightToeBase -15.754215 -0.000000 0.000000
1311
root -4.576059 23.214825 9.834989 703.522595 -78.382853 -428.457664
Spine -70.052442 -19.668761 5.876675
Head -85.750640 13.631191 10.803839
LeftShoulder -22.681204 3.062648 39.849839
LeftArm 186.362042 -26.655570 -147.368244
LeftForeArm 44.266532 -0.000000 120.116428
LeftHand -16.232874 -0.000000 -9.741364
LeftHandThumb1 -26.253704 0.000000 33.147579
RightShoulder -25.354686 67.660743 -56.995078
RightArm 111.902355 60.763315 110.481052
RightForeArm -34.795694 -0.000000 130.363511
RightHand -8.724476 -0.000000 9.620899
RightHandThumb1 -24.326973 -0.000000 -32.862282
LeftUpLeg 8.242322 10.373031 20.078741
LeftLeg 88.000360 -0.000000 -0.000000
LeftFoot 11.945783 -1.693253 44.971345
LeftToeBase 116.931315 -0.000000 -0.000000
RightUpLeg 8.380511 -12.677683 -12.887091
RightLeg 88.780965 -0.000000 -0.000000
RightFoot 47.275441 -5.520637 -3.082888
RightToeBase -53.170181 -0.000000 0.000000
1312
root -4.803678 23.078764 9.812229 702.193700 -79.135715 -426.102347
Spine -70.597105 -19.010477 6.090089
Head -85.624025 13.988226 10.347782
LeftShoulder -22.731768 3.438723 39.923172
LeftArm 186.385909 -26.519065 -147.289181
LeftForeArm 44.541082 -0.000000 120.521913
LeftHand -16.081005 0.000000 -10.028421
LeftHandThumb1 -26.253704 0.000000 33.147579
RightShoulder -24.538239 67.460586 -56.273518
RightArm 112.573279 60.931430 111.363811
RightForeArm -34.646791 -0.000000 130.912775
RightHand -8.864651 -0.000000 9.544647
RightHandThumb1 -24.326973 -0.000000 -32.862282
LeftUpLeg 7.368319 11.126303 19.844197
LeftLeg 89.198074 -0.000000 -0.000000
LeftFoot 10.792152 -1.639967 44.520298
LeftToeBase 116.954511 -0.000000 -0.000000
RightUpLeg 8.657636 -12.748772 -13.164599
RightLeg 89.451742 -0.000000 -0.000000
RightFoot 45.092108 -4.199129 -4.515447
RightToeBase -72.383728 -0.000000 0.000000
1313
root -5.023741 22.931555 9.791558 700.818549 -79.828568 -423.662137
Spine -71.195076 -18.355691 6.293124
Head -85.473957 14.155766 9.567019
LeftShoulder -22.695645 3.661201 40.040825
LeftArm 186.402051 -26.509906 -147.231936
LeftForeArm 44.708519 -0.000000 120.923782
LeftHand -15.744432 -0.000000 -10.157411
LeftHandThumb1 -26.253704 0.000000 33.147579
RightShoulder -23.628753 67.332824 -55.286635
RightArm 112.902888 60.845109 111.627813
RightForeArm -34.762828 -0.000000 131.288542
RightHand -8.773782 -0.000000 9.432676
RightHandThumb1 -24.326973 -0.000000 -32.862282
LeftUpLeg 6.393549 11.800364 19.594362
LeftLeg 90.467907 -0.000000 -0.000000
LeftFoot 9.547698 -1.674088 43.935379
LeftToeBase 117.022192 -0.000000 -0.000000
RightUpLeg 8.338326 -12.947857 -13.475490
RightLeg 91.240803 -0.000000 -0.000000
RightFoot 40.156200 -5.975231 -5.499626
RightToeBase -77.205231 -0.000000 0.000000
